<svg width="117" height="39" fill="none" xmlns="http://www.w3.org/2000/svg"><path fill-rule="evenodd" clip-rule="evenodd" d="M41 7.5A6.7 6.7 0 1 1 41 21a6.7 6.7 0 0 1 0-13.4zm0 2.6a4.1 4.1 0 1 1 0 8.2 4.1 4.1 0 0 1 0-8.2zM59.8 10.4h-4.4v10.2h-2.7V10.4h-4.4V7.8h11.5v2.6zM100 10.4h-4.4v10.2H93V10.4h-4.5V7.8H100v2.6zM116.3 20.6h-2.7V7.8h2.7v12.8zm-11.8-8.9h3.3c2.4 0 4.3 2 4.3 4.5 0 2.3-2 4.4-4.3 4.4h-5.9V7.8h2.6v4zm3 2.5h-1.1H104.5v3.9h3c1 0 1.8-.9 1.8-2 0-1-.7-1.9-1.8-1.9zM69.3 20.6h-7.6V7.8h7c2 0 3.6 1.6 3.6 3.5 0 1.1-.5 1.9-1 2.5 1 .6 1.7 1.7 1.7 3 0 2-1.7 3.8-3.7 3.8zm-.6-5.4h-4.4v2.9h4.4a1.4 1.4 0 0 0 0-2.9zm-.3-4.8h-4.1v2.4h4a1.2 1.2 0 0 0 0-2.4zM87.2 18.4l-.1.1a7.3 7.3 0 0 1-5.7 2.4 6.7 6.7 0 1 1 6-9.7c.1.4.8 1.9.6 4.3H77.5a4 4 0 0 0 3.9 2.9 6 6 0 0 0 4.2-1.7l1.6 1.7zM85.3 13a4 4 0 0 0-4-2.9c-2 0-3.5 1.3-3.9 3h8z" fill="#fff"/><path d="M18.2 14a4.2 4.2 0 1 1-8.4 0 4.2 4.2 0 0 1 8.4 0zM14 0a14 14 0 1 0 7.9 25.6L20 23.2a11.1 11.1 0 1 1 4.9-7c-.4 1.5-1.4 2-2.2 2-.7-.1-1.6-.7-1.6-2V14a7 7 0 1 0-2 5 4.6 4.6 0 0 0 3.8 2.1c1 0 2-.3 2.8-1a5.3 5.3 0 0 0 2-3.2A14 14 0 0 0 14 0" fill="#FF9E00"/><g clip-path="url(#clip0)"><path fill-rule="evenodd" clip-rule="evenodd" d="M107 31.4c0 2.8 1.5 4.5 4 4.5h.2v-1.6c.9 0 1.5.8 1.8 1.6h1.3c-.3-1.3-1.3-2-1.8-2.3.5-.3 1.4-1.1 1.5-2.2H113c-.3.9-1 1.7-1.7 1.8v-1.8H110v3.1c-.8-.2-1.7-1-1.8-3.1H107zm3.9 7.6h-.5c-2.5 0-3.7 0-4.5-.8-.8-.7-.8-2-.8-4.5v-.4c0-2.5 0-3.8.8-4.5.8-.8 2-.8 4.5-.8h.5c2.4 0 3.7 0 4.5.8.7.7.7 2 .7 4.5v.4c0 2.5 0 3.8-.7 4.5-.8.8-2 .8-4.5.8zm-43.7-9v8.9h1.4v-3.5l1 .8c.4.2.8.3 1.4.3.6 0 1-.1 1.6-.4a3 3 0 0 0 1-1.2c.3-.5.5-1 .5-1.7s-.2-1.2-.4-1.7c-.3-.5-.7-1-1.1-1.2a3 3 0 0 0-1.6-.4c-.6 0-1 0-1.4.3-.5.2-.8.5-1 .8l-.3-1h-1.1zm4.9 4.7a2 2 0 0 1-1.5.5 2 2 0 0 1-1.4-.5 2 2 0 0 1-.6-1.5c0-.6.2-1.1.6-1.5a2 2 0 0 1 1.4-.6c.6 0 1 .2 1.5.6.3.4.5.9.5 1.5a2 2 0 0 1-.5 1.5zM60 36.4h1.4v-5.1h2.8v5h1.4V30H60v6.4zm18.3 0c-.6 0-1.2 0-1.7-.3a3.2 3.2 0 0 1-1.7-3c0-.6.2-1.1.5-1.6a3 3 0 0 1 1.2-1.2c.5-.3 1-.4 1.7-.4s1.3.1 1.8.4c.5.3 1 .7 1.2 1.2.3.5.4 1 .4 1.7A3 3 0 0 1 80 36c-.4.3-1 .4-1.7.4zm0-1.2c.6 0 1-.2 1.4-.5.4-.4.6-1 .6-1.5 0-.6-.2-1.1-.6-1.5-.3-.4-.8-.5-1.4-.5-.5 0-1 .1-1.4.5a2 2 0 0 0-.5 1.5c0 .6.2 1 .5 1.5.4.3.9.5 1.4.5zm10.9-1.6V33A3.2 3.2 0 0 0 86 30c-.6 0-1.2.1-1.7.4a3 3 0 0 0-1.2 1.2c-.3.5-.4 1-.4 1.7a3.1 3.1 0 0 0 3.3 3.3c.7 0 1.3-.2 1.9-.5.5-.3 1-.8 1.2-1.3l-1.4-.3c-.1.3-.3.5-.6.6l-1 .2a2 2 0 0 1-1.3-.4c-.4-.3-.6-.7-.6-1.2h5zm-4.4-2.1c.3-.3.7-.4 1.1-.4.4 0 .8.1 1.1.4.3.2.6.6.7 1h-3.5c0-.5.3-.8.6-1zM96 36.4h-1.8L92 33.8h-.4v2.6h-1.4V30h1.4v2.5h.4l2-2.5H96l-2.7 3 3 3.4zm2.4 0h1.4v-5.1h2.2V30h-5.8v1.3h2.2v5z" fill="#fff" fill-opacity=".5"/></g><defs><clipPath id="clip0"><path fill="#fff" transform="translate(60 28)" d="M0 0h56.3v11H0z"/></clipPath></defs></svg>